<?xml version="1.0" encoding="iso-8859-1"?>
<!-- Generator: Adobe Illustrator 18.1.1, SVG Export Plug-In . SVG Version: 6.00 Build 0)  -->
<svg version="1.1" id="Capa_1" xmlns="http://www.w3.org/2000/svg" xmlns:xlink="http://www.w3.org/1999/xlink" x="0px" y="0px"
	 viewBox="0 0 196.54 196.54" style="enable-background:new 0 0 196.54 196.54;" xml:space="preserve">
<g>
	<g>
		<path style="fill:#010002;" d="M188.952,157.437l-0.193-0.387c-4.212-7.759-26.913-49.241-61.291-105.709V19.358
			c4.814-0.573,8.561-4.67,8.568-9.627c0-5.358-4.359-9.709-9.717-9.709L70.242,0c-5.347,0.018-9.706,4.384-9.706,9.731
			c0,4.935,3.711,9.015,8.489,9.616l0.097,31.999C31.537,113.077,7.662,157.502,7.487,157.877
			c-3.765,11.198-2.906,21.827,2.355,29.153c4.47,6.227,11.613,9.509,20.664,9.509h135.556c9.026,0,16.173-3.296,20.646-9.534
			C191.994,179.637,192.839,168.907,188.952,157.437z M180.993,182.904c-3.106,4.32-8.264,6.61-14.931,6.61H30.506
			c-6.689,0-11.853-2.276-14.949-6.582c-3.922-5.461-4.481-13.646-1.628-22.282c0.215-0.397,24.218-44.968,61.853-106.732
			l0.369-0.601V12.397h-5.909c-1.474,0-2.673-1.199-2.681-2.67c0.004-1.471,1.22-2.688,2.706-2.698l56.081,0.021
			c1.467,0,2.652,1.192,2.652,2.673c-0.007,1.474-1.213,2.673-2.695,2.673h-5.876l0.047,40.527l0.15,0.591l0.315,0.637
			c32.764,53.776,55.218,94.453,61.384,105.78c0.054,0.1,0.111,0.183,0.154,0.258C185.456,169.179,184.919,177.457,180.993,182.904z
			"/>
		<path style="fill:#010002;" d="M112.53,121.495c-4.023-9.405-10.511-17.425-11.27-18.345l-2.376-2.87l-2.384,2.885
			c-0.752,0.905-7.208,8.886-11.23,18.227c-10.153-4.731-22.167-5.991-23.56-6.12l-3.701-0.351l0.351,3.693
			c0.075,0.923,2.172,22.697,12.318,32.84c7.784,7.798,18.023,12.029,25.317,10.368c1.943,0.519,3.944,0.519,5.887-0.029
			c1.149,0.272,2.362,0.415,3.6,0.415c6.846,0,15.21-4.112,21.845-10.758c10.139-10.132,12.247-31.916,12.326-32.84l0.351-3.693
			l-3.704,0.351C135.746,115.321,122.962,116.577,112.53,121.495z M75.034,147.098c-6.245-6.227-9.029-19.308-10.003-25.156
			c4.692,0.752,11.971,2.319,18.156,5.304c-0.784,2.802-1.181,5.436-1.181,7.834c0,7.802,1.993,15.013,5.454,20.074
			C83.308,153.794,78.863,150.938,75.034,147.098z M93.018,152.481c-2.953-3.851-4.857-10.354-4.857-17.4
			c0-1.349,0.183-2.852,0.537-4.477c0.551,0.444,1.049,0.884,1.5,1.338c2.083,2.076,3.869,4.334,5.315,6.682
			C93.064,143.669,92.227,148.487,93.018,152.481z M99.009,132.797c-1.324-1.814-2.817-3.568-4.459-5.218
			c-1.109-1.102-2.401-2.151-3.837-3.135c2.362-5.687,5.794-10.941,8.163-14.24c2.187,3.06,5.826,8.575,8.235,14.366
			c-1.381,0.959-2.609,1.976-3.647,3.01C101.832,129.218,100.336,130.972,99.009,132.797z M105.071,152.005
			c0.608-3.922-0.247-8.589-2.566-13.378c1.439-2.348,3.225-4.606,5.304-6.682c0.394-0.401,0.83-0.791,1.288-1.17
			c0.336,1.56,0.505,2.999,0.505,4.309C109.606,141.78,107.834,148.082,105.071,152.005z M122.983,147.098
			c-3.947,3.958-8.528,6.85-12.766,8.171c3.482-5.086,5.544-12.451,5.544-20.188c0-2.387-0.379-4.982-1.145-7.745
			c6.224-3.035,13.61-4.631,18.367-5.397C132.006,127.79,129.221,140.867,122.983,147.098z"/>
	</g>
</g>
<g>
</g>
<g>
</g>
<g>
</g>
<g>
</g>
<g>
</g>
<g>
</g>
<g>
</g>
<g>
</g>
<g>
</g>
<g>
</g>
<g>
</g>
<g>
</g>
<g>
</g>
<g>
</g>
<g>
</g>
</svg>
