<?xml version="1.0" encoding="iso-8859-1"?>
<!DOCTYPE svg PUBLIC "-//W3C//DTD SVG 1.1//EN" "http://www.w3.org/Graphics/SVG/1.1/DTD/svg11.dtd">
<svg xmlns="http://www.w3.org/2000/svg" xmlns:xlink="http://www.w3.org/1999/xlink" version="1.1" x="0px" y="0px" viewBox="0 0 335.605 335.605" style="enable-background:new 0 0 335.605 335.605;" xml:space="preserve">
	<g>
		<path d="M273.044,226.949l-116.525-56.313l37.546-125.261c1.177-3.925-1.016-8.068-4.923-9.304   c-14.168-4.48-28.922-6.752-43.854-6.752C65.176,29.318,0,94.494,0,174.607c0,80.113,65.176,145.29,145.288,145.29   c28.002,0,55.188-7.987,78.619-23.097c22.809-14.709,41.014-35.414,52.646-59.876C278.324,233.199,276.757,228.743,273.044,226.949   z M215.778,284.193c-21.003,13.544-45.378,20.704-70.49,20.704C73.447,304.896,15,246.449,15,174.607   c0-71.841,58.447-130.289,130.288-130.289c10.916,0,21.725,1.353,32.227,4.028l-37.2,124.107c-1.058,3.529,0.604,7.303,3.921,8.906   l115.38,55.76C249.182,256.174,234.145,272.349,215.778,284.193z" fill="#689e41"/>
		<path d="M306.936,67.937c-18.387-24.699-43.549-42.639-72.766-51.879c-1.914-0.604-3.992-0.418-5.77,0.521   c-1.775,0.939-3.1,2.552-3.677,4.476l-39.381,131.386c-1.188,3.968,1.063,8.148,5.031,9.337c3.966,1.19,8.148-1.063,9.338-5.031   L236.84,32.876c22.916,8.798,43.33,24.226,58.063,44.018c16.814,22.586,25.702,49.455,25.702,77.7c0,16.994-3.2,33.43-9.523,48.964   l-58.806-28.419c-3.731-1.803-8.215-0.24-10.017,3.49c-1.802,3.729-0.24,8.213,3.489,10.016l65.796,31.797   c1.027,0.497,2.144,0.747,3.264,0.747c0.84,0,1.682-0.141,2.489-0.425c1.885-0.663,3.426-2.05,4.284-3.854   c9.305-19.568,14.023-40.534,14.023-62.316C335.605,123.097,325.691,93.132,306.936,67.937z" fill="#689e41"/>
	</g>
</svg>
