<?xml version="1.0" encoding="iso-8859-1"?>
<svg xmlns="http://www.w3.org/2000/svg" xmlns:xlink="http://www.w3.org/1999/xlink" version="1.1" id="Layer_1" x="0px" y="0px" viewBox="0 0 470.5 470.5" style="enable-background:new 0 0 470.5 470.5;" xml:space="preserve" width="512px" height="512px">
	<g>
		<path d="M460.333,150.472c-8.952-28.498-24.255-55.409-44.23-77.796C375.191,26.489,316.383,0,254.754,0c-5.523,0-10,4.477-10,10     v205.738c0,5.522,4.477,10,10,10H460.5c5.522,0,10-4.478,10-10C470.5,193.283,467.07,171.297,460.333,150.472z M264.754,20.257     c44.391,2.28,86.623,19.678,119.74,49.05h-119.74V20.257z M264.754,89.307h139.303c13.718,16.115,24.81,34.601,32.601,54.26     H264.754V89.307z M264.754,205.738v-42.172h178.629c3.832,13.652,6.141,27.772,6.866,42.172H264.754z" fill="#91DC5A"/>
		<path d="M454.961,244.752H249.117c-2.652,0-5.195,1.054-7.071,2.929L96.593,393.132c-1.875,1.876-2.929,4.42-2.929,7.072     s1.054,5.195,2.93,7.071c40.782,40.771,94.949,63.225,152.523,63.225c119.017,0,215.844-96.784,215.844-215.748     C464.961,249.23,460.483,244.752,454.961,244.752z M249.117,450.5c-48.892,0-95.077-17.85-131.134-50.474l135.275-135.274h191.45     C439.482,368.06,353.751,450.5,249.117,450.5z" fill="#91DC5A"/>
		<path d="M225.738,226.045V20.191c0-5.523-4.478-10-10-10C96.78,10.191,0,107.022,0,226.045     c0,57.577,22.454,111.74,63.226,152.513c1.876,1.875,4.419,2.929,7.071,2.929c2.652,0,5.195-1.054,7.071-2.929L222.81,233.116     C224.685,231.24,225.738,228.697,225.738,226.045z M205.738,221.902L70.473,357.168C37.85,321.12,20,274.939,20,226.045     C20,121.406,102.436,35.67,205.738,30.443V221.902z" fill="#91DC5A"/>
		<rect x="82.277" y="144.553" width="89.014" height="20" fill="#91DC5A"/>
		<rect x="149.014" y="178.025" width="22.277" height="20" fill="#91DC5A"/>
		<rect x="110.096" y="111.193" width="61.195" height="20" fill="#91DC5A"/>
		<rect x="115.645" y="178.025" width="22.277" height="20" fill="#91DC5A"/>
		<rect x="82.277" y="178.025" width="22.277" height="20" fill="#91DC5A"/>
		<rect x="304.752" y="322.578" width="22.277" height="20" fill="#91DC5A"/>
		<rect x="271.395" y="322.578" width="22.277" height="20" fill="#91DC5A"/>
		<rect x="238.025" y="322.578" width="22.277" height="20" fill="#91DC5A"/>
		<rect x="238.025" y="355.945" width="116.832" height="20" fill="#91DC5A"/>
	</g>
</svg>
